<svg width="81" height="81" viewBox="0 0 81 81" fill="none" xmlns="http://www.w3.org/2000/svg">
<path d="M36.0703 26.244C35.4929 25.9107 34.838 25.7352 34.1713 25.7353C33.5046 25.7354 32.8497 25.9111 32.2724 26.2446C31.6951 26.5781 31.2158 27.0578 30.8828 27.6353C30.5497 28.2129 30.3746 28.8679 30.375 29.5346V51.4704C30.3746 52.1371 30.5497 52.7922 30.8828 53.3697C31.2158 53.9473 31.6951 54.4269 32.2724 54.7605C32.8497 55.094 33.5046 55.2696 34.1713 55.2697C34.838 55.2699 35.4929 55.0944 36.0703 54.7611L35.8201 54.3282C35.3188 54.6175 34.7502 54.7698 34.1713 54.7697C33.5924 54.7697 33.0238 54.6171 32.5225 54.3275C32.0213 54.0379 31.6051 53.6214 31.3159 53.1199C31.0267 52.6185 30.8746 52.0497 30.875 51.4708V51.4704V29.5346V29.5343C30.8746 28.9554 31.0267 28.3866 31.3159 27.8851C31.6051 27.3836 32.0213 26.9672 32.5225 26.6775C33.0238 26.3879 33.5924 26.2354 34.1713 26.2353C34.7502 26.2352 35.319 26.3876 35.8203 26.677M36.0703 26.244L35.8202 26.6769L35.8203 26.677M36.0703 26.244L35.8203 26.677M36.0703 26.244L35.8203 54.3281L56.7029 42.2592L56.7031 42.2591C57.0119 42.0808 57.2683 41.8244 57.4465 41.5156C57.6248 41.2068 57.7186 40.8565 57.7186 40.5C57.7186 40.1435 57.6248 39.7932 57.4465 39.4844C57.2683 39.1756 57.0119 38.9192 56.7031 38.7409L56.703 38.7409L35.8203 26.677M0.5 40.5C0.5 29.8913 4.71427 19.7172 12.2157 12.2157C19.7172 4.71427 29.8913 0.5 40.5 0.5C51.1087 0.5 61.2828 4.71427 68.7843 12.2157C76.2857 19.7172 80.5 29.8913 80.5 40.5C80.5 51.1087 76.2857 61.2828 68.7843 68.7843C61.2828 76.2857 51.1087 80.5 40.5 80.5C29.8913 80.5 19.7172 76.2857 12.2157 68.7843C4.71427 61.2828 0.5 51.1087 0.5 40.5ZM40.5 4.5625C35.7806 4.5625 31.1075 5.49205 26.7473 7.29808C22.3872 9.10411 18.4255 11.7512 15.0883 15.0883C11.7512 18.4255 9.10411 22.3872 7.29808 26.7473C5.49205 31.1075 4.5625 35.7806 4.5625 40.5C4.5625 45.2194 5.49205 49.8926 7.29808 54.2527C9.10411 58.6128 11.7512 62.5745 15.0883 65.9117C18.4255 69.2488 22.3872 71.8959 26.7473 73.7019C31.1075 75.5079 35.7806 76.4375 40.5 76.4375C50.0312 76.4375 59.1721 72.6512 65.9117 65.9117C72.6512 59.1721 76.4375 50.0312 76.4375 40.5C76.4375 30.9688 72.6512 21.8279 65.9117 15.0883C59.1721 8.34876 50.0312 4.5625 40.5 4.5625Z" fill="#FF2E00" stroke="#EFEFEF"/>
</svg>
